# File created by Blade
# Date/Time:  Wed Sep 24 20:15:16 2014
# Frame Rate: 120.000 fps
#------------------------------------------------------
:FULLY-SPECIFIED
:DEGREES
1469
root -6.284048 32.747086 -5.612838 15.952597 5.824504 -1.590931
Spine -18.422189 8.440744 -0.216725
Head -11.491823 -10.828148 9.457634
LeftShoulder -6.047884 17.896161 9.501875
LeftArm 26.566008 39.559241 -68.786945
LeftForeArm -0.353621 0.000000 20.624458
LeftHand -22.431822 -0.000000 -6.377682
LeftHandThumb1 -26.253704 0.000000 33.147579
RightShoulder -15.105397 14.097035 -12.687446
RightArm -11.524527 -3.746713 89.727924
RightForeArm 29.094111 -0.000000 83.010713
RightHand -1.278209 -0.000000 -13.338967
RightHandThumb1 -24.326973 -0.000000 -32.862282
LeftUpLeg -14.671179 5.188469 4.645219
LeftLeg 1.018696 -0.000000 -0.000000
LeftFoot -10.867268 5.987545 -18.377035
LeftToeBase 9.671015 -0.000000 -0.000000
RightUpLeg -14.466310 -7.426015 -0.463636
RightLeg 4.122913 -0.000000 -0.000000
RightFoot -8.945928 -4.796303 -13.376215
RightToeBase 0.677625 -0.000000 -0.000000
1470
root -6.284134 32.746661 -5.611920 15.961412 5.828122 -1.594583
Spine -18.429872 8.448891 -0.220157
Head -11.574750 -10.814652 9.444263
LeftShoulder -6.042672 17.915216 9.517079
LeftArm 26.582011 39.532473 -68.764677
LeftForeArm -0.381773 -0.000000 20.614238
LeftHand -22.432071 0.000000 -6.389774
LeftHandThumb1 -26.253704 0.000000 33.147579
RightShoulder -15.125516 14.103497 -12.703194
RightArm -11.515506 -3.701841 89.757790
RightForeArm 29.347678 -0.000000 82.933601
RightHand -1.644856 0.000000 -12.578611
RightHandThumb1 -24.326973 -0.000000 -32.862282
LeftUpLeg -14.680586 5.181524 4.651103
LeftLeg 1.023736 -0.000000 -0.000000
LeftFoot -10.875934 5.992218 -18.393642
LeftToeBase 9.649375 -0.000000 -0.000000
RightUpLeg -14.467977 -7.427002 -0.458633
RightLeg 4.109887 -0.000000 -0.000000
RightFoot -8.956315 -4.778875 -13.354340
RightToeBase 0.719509 -0.000000 -0.000000
1471
root -6.284518 32.746340 -5.611837 15.969559 5.835043 -1.597946
Spine -18.433513 8.439743 -0.214090
Head -11.656902 -10.793385 9.425368
LeftShoulder -6.043535 17.897021 9.524708
LeftArm 26.552786 39.519294 -68.766032
LeftForeArm -0.404864 -0.000000 20.602668
LeftHand -22.403370 -0.000000 -6.400363
LeftHandThumb1 -26.253704 0.000000 33.147579
RightShoulder -15.125737 14.100483 -12.698949
RightArm -11.476614 -3.735843 89.743049
RightForeArm 29.547852 -0.000000 82.894954
RightHand -1.605240 -0.000000 -12.526278
RightHandThumb1 -24.326973 -0.000000 -32.862282
LeftUpLeg -14.684091 5.182921 4.650643
LeftLeg 1.007924 -0.000000 -0.000000
LeftFoot -10.887320 6.013901 -18.193607
LeftToeBase 9.737442 -0.000000 -0.000000
RightUpLeg -14.472104 -7.433996 -0.452018
RightLeg 4.105984 -0.000000 -0.000000
RightFoot -8.938760 -4.803968 -13.377027
RightToeBase 0.665502 -0.000000 -0.000000
1472
root -6.283525 32.746593 -5.611606 15.975933 5.831687 -1.597555
Spine -18.436247 8.441151 -0.221325
Head -11.728311 -10.768392 9.427425
LeftShoulder -6.050517 17.902873 9.536903
LeftArm 26.569136 39.504480 -68.750260
LeftForeArm -0.403274 -0.000000 20.592182
LeftHand -22.415544 -0.000000 -6.429640
LeftHandThumb1 -26.253704 0.000000 33.147579
RightShoulder -15.128830 14.118858 -12.689721
RightArm -11.465975 -3.772964 89.719112
RightForeArm 29.672124 -0.000000 82.879790
RightHand -1.547802 -0.000000 -12.582270
RightHandThumb1 -24.326973 -0.000000 -32.862282
LeftUpLeg -14.693784 5.178868 4.649790
LeftLeg 1.018388 -0.000000 -0.000000
LeftFoot -10.898513 6.009365 -18.211862
LeftToeBase 9.749800 -0.000000 -0.000000
RightUpLeg -14.480481 -7.446694 -0.449650
RightLeg 4.106517 -0.000000 -0.000000
RightFoot -8.949725 -4.773517 -13.357703
RightToeBase 0.668431 -0.000000 -0.000000
